<svg width="16" height="16" viewBox="0 0 16 16" fill="none" xmlns="http://www.w3.org/2000/svg">
<path d="M8 7.66667C7.55797 7.66667 7.13404 7.49107 6.82148 7.17851C6.50892 6.86595 6.33333 6.44203 6.33333 6C6.33333 5.55798 6.50892 5.13405 6.82148 4.82149C7.13404 4.50893 7.55797 4.33334 8 4.33334C8.44202 4.33334 8.86595 4.50893 9.17851 4.82149C9.49107 5.13405 9.66666 5.55798 9.66666 6C9.66666 6.21887 9.62355 6.4356 9.53979 6.63781C9.45604 6.84002 9.33327 7.02375 9.17851 7.17851C9.02374 7.33328 8.84001 7.45604 8.6378 7.5398C8.43559 7.62356 8.21886 7.66667 8 7.66667ZM8 1.33334C6.76232 1.33334 5.57533 1.825 4.70016 2.70017C3.82499 3.57534 3.33333 4.76233 3.33333 6C3.33333 9.5 8 14.6667 8 14.6667C8 14.6667 12.6667 9.5 12.6667 6C12.6667 4.76233 12.175 3.57534 11.2998 2.70017C10.4247 1.825 9.23767 1.33334 8 1.33334Z" fill="#7B809A"/>
</svg>
